<svg width="36" height="36" viewBox="0 0 36 36" fill="none" xmlns="http://www.w3.org/2000/svg">
<path d="M20 14.475V12.675C20.825 12.325 21.6688 12.0625 22.5312 11.8875C23.3937 11.7125 24.3 11.625 25.25 11.625C25.9 11.625 26.5375 11.675 27.1625 11.775C27.7875 11.875 28.4 12 29 12.15V13.8C28.4 13.575 27.7938 13.4063 27.1813 13.2938C26.5688 13.1813 25.925 13.125 25.25 13.125C24.3 13.125 23.3875 13.2438 22.5125 13.4813C21.6375 13.7188 20.8 14.05 20 14.475ZM20 22.725V20.8875C20.825 20.5375 21.6688 20.2813 22.5312 20.1188C23.3937 19.9563 24.3 19.875 25.25 19.875C25.9 19.875 26.5375 19.925 27.1625 20.025C27.7875 20.125 28.4 20.25 29 20.4V22.05C28.4 21.825 27.7938 21.6562 27.1813 21.5438C26.5688 21.4313 25.925 21.375 25.25 21.375C24.3 21.375 23.3875 21.4875 22.5125 21.7125C21.6375 21.9375 20.8 22.275 20 22.725ZM20 18.6V16.8C20.825 16.45 21.6688 16.1875 22.5312 16.0125C23.3937 15.8375 24.3 15.75 25.25 15.75C25.9 15.75 26.5375 15.8 27.1625 15.9C27.7875 16 28.4 16.125 29 16.275V17.925C28.4 17.7 27.7938 17.5312 27.1813 17.4188C26.5688 17.3063 25.925 17.25 25.25 17.25C24.3 17.25 23.3875 17.3688 22.5125 17.6063C21.6375 17.8438 20.8 18.175 20 18.6ZM8.3 24.75C9.65 24.75 10.9563 24.9062 12.2188 25.2188C13.4812 25.5312 14.725 26 15.95 26.625V10.6125C14.825 9.8625 13.6063 9.28125 12.2938 8.86875C10.9813 8.45625 9.65 8.25 8.3 8.25C7.35 8.25 6.41875 8.36875 5.50625 8.60625C4.59375 8.84375 3.675 9.1375 2.75 9.4875V25.7625C3.525 25.4125 4.40625 25.1562 5.39375 24.9938C6.38125 24.8313 7.35 24.75 8.3 24.75ZM18.2 26.625C19.45 26 20.675 25.5312 21.875 25.2188C23.075 24.9062 24.35 24.75 25.7 24.75C26.65 24.75 27.6313 24.825 28.6438 24.975C29.6563 25.125 30.525 25.325 31.25 25.575V9.4875C30.4 9.0625 29.5 8.75 28.55 8.55C27.6 8.35 26.65 8.25 25.7 8.25C24.35 8.25 23.0438 8.45625 21.7812 8.86875C20.5187 9.28125 19.325 9.8625 18.2 10.6125V26.625ZM17.075 30C15.8 29.05 14.4125 28.3188 12.9125 27.8063C11.4125 27.2938 9.875 27.0375 8.3 27.0375C7.375 27.0375 6.475 27.15 5.6 27.375C4.725 27.6 3.85 27.875 2.975 28.2C2.4 28.475 1.84375 28.4375 1.30625 28.0875C0.76875 27.7375 0.5 27.2375 0.5 26.5875V9.225C0.5 8.85 0.5875 8.50625 0.7625 8.19375C0.9375 7.88125 1.2 7.6375 1.55 7.4625C2.6 6.9625 3.69375 6.59375 4.83125 6.35625C5.96875 6.11875 7.125 6 8.3 6C9.875 6 11.4062 6.2125 12.8937 6.6375C14.3812 7.0625 15.775 7.7125 17.075 8.5875C18.35 7.7125 19.7188 7.0625 21.1813 6.6375C22.6438 6.2125 24.15 6 25.7 6C26.875 6 28.025 6.11875 29.15 6.35625C30.275 6.59375 31.3625 6.9625 32.4125 7.4625C32.7625 7.6375 33.0312 7.88125 33.2188 8.19375C33.4062 8.50625 33.5 8.85 33.5 9.225V26.5875C33.5 27.2875 33.2188 27.8188 32.6562 28.1813C32.0938 28.5438 31.5375 28.55 30.9875 28.2C30.1375 27.85 29.275 27.5687 28.4 27.3562C27.525 27.1437 26.625 27.0375 25.7 27.0375C24.125 27.0375 22.6125 27.3 21.1625 27.825C19.7125 28.35 18.35 29.075 17.075 30Z" fill="#6D0EC0"/>
</svg>
