<svg width="396" height="49" viewBox="0 0 396 49" fill="none" xmlns="http://www.w3.org/2000/svg">
<path d="M18.9641 11.504L21.2641 16.61L6.72807 22.682L21.2641 28.57L18.9641 33.86L0.564072 25.902V19.508L18.9641 11.504Z" fill="#6D0EC0"/>
<path d="M42.6336 38L40.9776 31.146H31.6856L30.0756 38H22.2556L31.8696 6.12199H41.0236L50.6376 38H42.6336ZM32.9736 25.672H39.6896L36.3316 11.596L32.9736 25.672Z" fill="#272727"/>
<path d="M59.3244 38.782C57.2084 38.782 55.5524 38.184 54.3564 36.988C53.1911 35.7613 52.6084 34.0287 52.6084 31.79V3.86799L59.8764 3.08599V31.514C59.8764 32.526 60.2904 33.032 61.1184 33.032C61.5478 33.032 61.9464 32.9553 62.3144 32.802L63.7404 37.954C62.4218 38.506 60.9498 38.782 59.3244 38.782Z" fill="#272727"/>
<path d="M85.6821 30.916C85.6821 31.836 85.8047 32.5107 86.0501 32.94C86.3261 33.3693 86.7554 33.6913 87.3381 33.906L85.82 38.644C84.3174 38.5213 83.0907 38.1993 82.1401 37.678C81.1894 37.126 80.4534 36.2673 79.9321 35.102C78.3374 37.5553 75.8841 38.782 72.5721 38.782C70.1494 38.782 68.2174 38.0767 66.7761 36.666C65.3347 35.2553 64.6141 33.4153 64.6141 31.146C64.6141 28.478 65.5954 26.4387 67.5581 25.028C69.5207 23.6173 72.3574 22.912 76.068 22.912H78.5521V21.854C78.5521 20.4127 78.2454 19.4313 77.6321 18.91C77.0187 18.358 75.9454 18.082 74.4121 18.082C73.6147 18.082 72.6487 18.2047 71.514 18.45C70.3794 18.6647 69.2141 18.9713 68.0181 19.37L66.3621 14.586C67.8954 14.0033 69.4594 13.5587 71.0541 13.252C72.6794 12.9453 74.1821 12.792 75.562 12.792C79.0581 12.792 81.6187 13.5127 83.2441 14.954C84.8694 16.3953 85.6821 18.5573 85.6821 21.44V30.916ZM74.6881 33.584C76.3441 33.584 77.6321 32.802 78.5521 31.238V26.914H76.758C75.1021 26.914 73.8601 27.2053 73.0321 27.788C72.2347 28.3707 71.8361 29.2753 71.8361 30.502C71.8361 31.4833 72.0814 32.25 72.5721 32.802C73.0934 33.3233 73.7987 33.584 74.6881 33.584Z" fill="#272727"/>
<path d="M105.777 12.792C107.893 12.792 109.549 13.436 110.745 14.724C111.941 16.012 112.539 17.8213 112.539 20.152V38H105.271V21.394C105.271 20.1673 105.072 19.324 104.673 18.864C104.305 18.3733 103.738 18.128 102.971 18.128C101.499 18.128 100.089 19.186 98.7392 21.302V38H91.4712V13.574H97.8192L98.3252 16.472C99.3679 15.2453 100.487 14.3253 101.683 13.712C102.91 13.0987 104.275 12.792 105.777 12.792Z" fill="#272727"/>
<path d="M129.382 0.463989L135.73 1.88999L124.92 43.152L118.526 41.68L129.382 0.463989Z" fill="#6D0EC0"/>
<path d="M150.934 6.12199C155.933 6.12199 159.935 7.25666 162.94 9.52599C165.976 11.7647 167.494 15.8893 167.494 21.9C167.494 27.8187 166.022 31.9893 163.078 34.412C160.134 36.804 156.316 38 151.624 38H142.056V6.12199H150.934ZM149.6 11.596V32.526H152.084C154.568 32.526 156.454 31.7593 157.742 30.226C159.03 28.662 159.674 25.8867 159.674 21.9C159.674 19.1707 159.352 17.0547 158.708 15.552C158.064 14.0493 157.19 13.022 156.086 12.47C154.982 11.8873 153.618 11.596 151.992 11.596H149.6Z" fill="#272727"/>
<path d="M182.461 12.792C186.203 12.792 189.131 13.942 191.247 16.242C193.363 18.5113 194.421 21.7007 194.421 25.81C194.421 28.4167 193.931 30.7013 192.949 32.664C191.999 34.596 190.619 36.0987 188.809 37.172C187.031 38.2453 184.915 38.782 182.461 38.782C178.751 38.782 175.822 37.6473 173.675 35.378C171.559 33.078 170.501 29.8733 170.501 25.764C170.501 23.1573 170.977 20.888 171.927 18.956C172.909 16.9933 174.289 15.4753 176.067 14.402C177.877 13.3287 180.008 12.792 182.461 12.792ZM182.461 18.128C180.989 18.128 179.885 18.7567 179.149 20.014C178.413 21.2407 178.045 23.1573 178.045 25.764C178.045 28.432 178.398 30.3793 179.103 31.606C179.839 32.8327 180.959 33.446 182.461 33.446C183.933 33.446 185.037 32.8327 185.773 31.606C186.509 30.3487 186.877 28.4167 186.877 25.81C186.877 23.142 186.509 21.1947 185.773 19.968C185.068 18.7413 183.964 18.128 182.461 18.128Z" fill="#272727"/>
<path d="M225.747 12.792C227.679 12.792 229.227 13.4513 230.393 14.77C231.558 16.058 232.141 17.852 232.141 20.152V38H224.873V21.394C224.873 19.2167 224.183 18.128 222.803 18.128C222.036 18.128 221.361 18.3887 220.779 18.91C220.196 19.4313 219.629 20.2287 219.077 21.302V38H211.809V21.394C211.809 19.2167 211.119 18.128 209.739 18.128C209.003 18.128 208.328 18.404 207.715 18.956C207.132 19.4773 206.565 20.2593 206.013 21.302V38H198.745V13.574H205.093L205.599 16.426C206.549 15.1993 207.592 14.2947 208.727 13.712C209.892 13.0987 211.211 12.792 212.683 12.792C214.063 12.792 215.243 13.1293 216.225 13.804C217.237 14.4787 217.973 15.4293 218.433 16.656C219.414 15.3373 220.487 14.3713 221.653 13.758C222.849 13.114 224.213 12.792 225.747 12.792Z" fill="#272727"/>
<path d="M244.87 13.574V38H237.602V13.574H244.87ZM241.19 0.693989C242.447 0.693989 243.475 1.09266 244.272 1.88999C245.1 2.65666 245.514 3.63799 245.514 4.83399C245.514 6.02999 245.1 7.02666 244.272 7.82399C243.475 8.59066 242.447 8.97399 241.19 8.97399C239.933 8.97399 238.905 8.59066 238.108 7.82399C237.311 7.02666 236.912 6.02999 236.912 4.83399C236.912 3.63799 237.311 2.65666 238.108 1.88999C238.905 1.09266 239.933 0.693989 241.19 0.693989Z" fill="#272727"/>
<path d="M264.891 12.792C267.007 12.792 268.663 13.436 269.859 14.724C271.055 16.012 271.653 17.8213 271.653 20.152V38H264.385V21.394C264.385 20.1673 264.185 19.324 263.787 18.864C263.419 18.3733 262.851 18.128 262.085 18.128C260.613 18.128 259.202 19.186 257.853 21.302V38H250.584V13.574H256.933L257.439 16.472C258.481 15.2453 259.601 14.3253 260.797 13.712C262.023 13.0987 263.388 12.792 264.891 12.792Z" fill="#272727"/>
<path d="M299.627 15C298.033 15.644 295.687 15.966 292.589 15.966C294.184 16.6407 295.349 17.4687 296.085 18.45C296.821 19.4313 297.189 20.704 297.189 22.268C297.189 23.832 296.775 25.2427 295.947 26.5C295.119 27.7267 293.923 28.6927 292.359 29.398C290.826 30.1033 289.017 30.456 286.931 30.456C285.95 30.456 285.015 30.364 284.125 30.18C283.88 30.3027 283.681 30.502 283.527 30.778C283.405 31.0233 283.343 31.284 283.343 31.56C283.343 32.02 283.512 32.388 283.849 32.664C284.217 32.9093 284.938 33.032 286.011 33.032H289.691C291.562 33.032 293.203 33.3387 294.613 33.952C296.024 34.5653 297.113 35.4087 297.879 36.482C298.646 37.5553 299.029 38.7667 299.029 40.116C299.029 42.6613 297.925 44.6393 295.717 46.05C293.54 47.4913 290.381 48.212 286.241 48.212C283.267 48.212 280.921 47.89 279.203 47.246C277.486 46.6327 276.275 45.7587 275.569 44.624C274.895 43.4893 274.557 42.0633 274.557 40.346H281.089C281.089 41.082 281.227 41.6647 281.503 42.094C281.81 42.5233 282.347 42.8453 283.113 43.06C283.88 43.2747 284.984 43.382 286.425 43.382C288.419 43.382 289.799 43.1367 290.565 42.646C291.332 42.186 291.715 41.5113 291.715 40.622C291.715 39.886 291.424 39.3033 290.841 38.874C290.259 38.4447 289.385 38.23 288.219 38.23H284.677C282.163 38.23 280.277 37.7853 279.019 36.896C277.793 35.976 277.179 34.8107 277.179 33.4C277.179 32.5107 277.44 31.652 277.961 30.824C278.483 29.9653 279.188 29.26 280.077 28.708C278.544 27.88 277.425 26.914 276.719 25.81C276.045 24.6753 275.707 23.3107 275.707 21.716C275.707 18.9867 276.689 16.8247 278.651 15.23C280.614 13.6047 283.205 12.792 286.425 12.792C288.879 12.8533 290.949 12.608 292.635 12.056C294.353 11.504 296.116 10.6913 297.925 9.61799L299.627 15ZM286.609 17.576C285.475 17.576 284.57 17.944 283.895 18.68C283.251 19.3853 282.929 20.3667 282.929 21.624C282.929 22.9427 283.251 23.97 283.895 24.706C284.57 25.4113 285.475 25.764 286.609 25.764C287.805 25.764 288.71 25.4113 289.323 24.706C289.967 24.0007 290.289 22.9427 290.289 21.532C290.289 18.8947 289.063 17.576 286.609 17.576Z" fill="#272727"/>
<path d="M322.628 38H316.326L316.004 34.918C314.225 37.494 311.757 38.782 308.598 38.782C306.359 38.782 304.657 38.1073 303.492 36.758C302.357 35.4087 301.79 33.5227 301.79 31.1V13.574H309.058V30.18C309.058 31.376 309.242 32.2193 309.61 32.71C310.009 33.17 310.607 33.4 311.404 33.4C312.937 33.4 314.256 32.4493 315.36 30.548V13.574H322.628V38Z" fill="#272727"/>
<path d="M349.642 25.304C349.642 26.316 349.596 27.19 349.504 27.926H334.37C334.616 29.9807 335.198 31.422 336.118 32.25C337.038 33.078 338.311 33.492 339.936 33.492C340.918 33.492 341.868 33.3233 342.788 32.986C343.708 32.618 344.705 32.066 345.778 31.33L348.768 35.378C345.916 37.6473 342.742 38.782 339.246 38.782C335.29 38.782 332.254 37.6167 330.138 35.286C328.022 32.9553 326.964 29.8273 326.964 25.902C326.964 23.418 327.409 21.1947 328.298 19.232C329.188 17.2387 330.491 15.6747 332.208 14.54C333.926 13.3747 335.98 12.792 338.372 12.792C341.899 12.792 344.659 13.896 346.652 16.104C348.646 18.312 349.642 21.3787 349.642 25.304ZM342.512 23.234C342.451 19.4927 341.132 17.622 338.556 17.622C337.299 17.622 336.318 18.082 335.612 19.002C334.938 19.922 334.524 21.44 334.37 23.556H342.512V23.234Z" fill="#272727"/>
<path d="M362.327 12.792C364.075 12.792 365.716 13.0527 367.249 13.574C368.782 14.0953 370.132 14.8313 371.297 15.782L368.629 19.876C366.636 18.6187 364.627 17.99 362.603 17.99C361.653 17.99 360.916 18.1587 360.395 18.496C359.904 18.8027 359.659 19.2473 359.659 19.83C359.659 20.29 359.766 20.6733 359.981 20.98C360.226 21.256 360.702 21.5473 361.407 21.854C362.113 22.1607 363.201 22.5287 364.673 22.958C367.218 23.694 369.105 24.66 370.331 25.856C371.589 27.0213 372.217 28.6467 372.217 30.732C372.217 32.388 371.742 33.8293 370.791 35.056C369.84 36.252 368.537 37.172 366.881 37.816C365.225 38.46 363.385 38.782 361.361 38.782C359.307 38.782 357.39 38.46 355.611 37.816C353.863 37.172 352.376 36.2827 351.149 35.148L354.691 31.192C356.746 32.7867 358.908 33.584 361.177 33.584C362.281 33.584 363.14 33.3847 363.753 32.986C364.397 32.5873 364.719 32.02 364.719 31.284C364.719 30.7013 364.596 30.2413 364.351 29.904C364.106 29.5667 363.631 29.26 362.925 28.984C362.22 28.6773 361.1 28.3093 359.567 27.88C357.144 27.1747 355.335 26.1933 354.139 24.936C352.943 23.6787 352.345 22.1147 352.345 20.244C352.345 18.8333 352.744 17.576 353.541 16.472C354.369 15.3373 355.535 14.448 357.037 13.804C358.571 13.1293 360.334 12.792 362.327 12.792Z" fill="#272727"/>
<path d="M376.973 11.504L395.373 19.508V25.902L376.973 33.86L374.673 28.57L389.209 22.682L374.673 16.61L376.973 11.504Z" fill="#6D0EC0"/>
</svg>
